<svg version="1.2" xmlns="http://www.w3.org/2000/svg" viewBox="0 0 1080 1080" width="1080" height="1080">
	<style>
		.s0 { fill: #000000 } 
	</style>
	<path id="بسطة" class="s0" aria-label="بسطة"  d="m69.1 419.5v-30h52.5v30zm60 0v-30h52.5v30zm92.3 120v112.5h-101.3q-25.1 0-41.2-0.8-16.1-0.7-25.1-4.5-8.7-4.1-12.8-12.7-3.7-9-4.5-25.1-0.7-16.1-0.7-41.3v-45q0-28.9 0.7-46.9 1.1-18 5.3-28.1 4.5-10.1 14.2-14.2 10.1-4.5 28.1-5.3 18.4-1.1 47.3-1.1h86.2v112.5zm-51.3-7.5h-85.9q-5.6 0-6.8 1.1-0.7 1.1-0.7 6.4h93.4zm54.7 7.5v-150h112.5v37.5h146.6q23.7 0 38.7 0.7 15 0.8 23.2 4.5 8.3 3.4 11.6 11.7 3.8 8.2 4.5 23.2 0.8 15 0.8 38.6v33.8h3.7v112.5h-70.8q-4.2 0-8.7 0-4.1 0-8.6 0h-257.6q-1.1-13.9-2.3-28.5-1.1-15-1.1-28.9 0-4.1 0-7.1 0-3.4 0.4-8.3 0.4-4.8 1.1-13.8 0.8-9.4 1.9-25.9zm234.4-7.5h-119.3v7.5h126.8q0-5.3-1.2-6.4-0.7-1.1-6.3-1.1zm351.6 0v-105h112.5v112.5h3.7v112.5h-360.4q-1.1-13.9-2.2-28.5-1.1-15-1.1-28.9 0-4.1 0-7.1 0-3.4 0.3-8.3 0.4-4.8 1.2-13.8 0.7-9.4 1.8-25.9h4.2v-112.5h112.5v112.5q3.7 0 5.6-0.8 1.9-1.1 1.9-6.7v-105h112.5v112.5q5.2 0 6.3-0.8 1.2-1.1 1.2-6.7zm120 0v-105h112.5v140.6q0 25.2-0.8 41.3-0.7 16.1-4.5 25.1-3.7 8.6-12.7 12.8-8.7 3.7-24.4 4.5-15.8 0.7-40.5 0.7h-33.8q-1.1-13.9-2.2-28.5-1.1-15-1.1-28.9 0-4.1 0-7.1 0-3.4 0.3-8.2 0.4-4.9 1.2-13.9 0.7-9.4 1.8-25.9h0.4q3 0 3.4-0.8 0.4-1.1 0.4-6.7zm30 157.5v-30h52.5v30z"/>
</svg>